<svg id="Layer_1" data-name="Layer 1" xmlns="http://www.w3.org/2000/svg" viewBox="0 0 889.36 205.33"><defs><style>.cls-1{fill:#ed1c24;}.cls-2{fill:none;}</style></defs><path class="cls-1" d="M54.36,390.37V595.69H124.3V432.33l125.59-.41c3.19,0,19.26.25,31.94,13a44.85,44.85,0,0,1,12.36,25v56.73A41.44,41.44,0,0,1,282.75,553a40.4,40.4,0,0,1-18,10.55l17.73,32.18H318.3c-1.13-7.74-2.08-16-2.75-24.77-.75-9.92-1.05-19.29-1-28q.64-37.74,1.3-75.48a46.89,46.89,0,0,1,41.48-38.65l89.35.35c2.9-.2,21.09-1.19,35.2,12.69a45.63,45.63,0,0,1,13,27c.08,13.12.58,95.61,0,106.63-.09,1.54-.19,3-.19,3-.46,6.71-1.2,12.52-1.94,17.18h27.66V432l131.47-.13c2.88.22,18.22,1.71,29.24,15a42.52,42.52,0,0,1,9.62,26.2v55.39a37,37,0,0,1-29.1,34.91q9,16.2,18.05,32.39h87.88V572.18l-71.9-140.56h53.26l45,90.26,45-91.74,52.37.89-71.9,141.45-.3,23.21H943.72V390.37Z" transform="translate(-54.36 -390.37)"/><path class="cls-1" d="M174.54,470.83v55.79h52.1a17.15,17.15,0,0,0,12.22-4.53,16.36,16.36,0,0,0,4.38-7.46V483.28A16.13,16.13,0,0,0,228,470.83Z" transform="translate(-54.36 -390.37)"/><polygon class="cls-1" points="120.17 177.56 157.39 177.56 172.63 205.33 120.17 205.33 120.17 177.56"/><path class="cls-1" d="M378.68,468.53h50.83a12.9,12.9,0,0,1,13.68,11.34v95.79a14.78,14.78,0,0,1-3.94,6.78,15.33,15.33,0,0,1-10.13,4.17H381a14,14,0,0,1-10.26-3.11,13.76,13.76,0,0,1-4.6-8.23V479.09a13.46,13.46,0,0,1,12.51-10.56Z" transform="translate(-54.36 -390.37)"/><path class="cls-2" d="M571.58,566.75" transform="translate(-54.36 -390.37)"/><polygon class="cls-1" points="517.21 205.33 568.9 205.33 553.28 176.38 517.21 176.38 517.21 205.33"/><path class="cls-1" d="M571.58,471.64V527h55.26a18.45,18.45,0,0,0,13.77-11.57V482.28a16.69,16.69,0,0,0-12.83-10.64Z" transform="translate(-54.36 -390.37)"/></svg>